<mxfile host="65bd71144e">
    <diagram id="lkEo9NBIPVErr78HsslX" name="Page-1">
        <mxGraphModel dx="613" dy="467" grid="1" gridSize="10" guides="1" tooltips="1" connect="1" arrows="1" fold="1" page="1" pageScale="1" pageWidth="850" pageHeight="1100" math="0" shadow="0">
            <root>
                <mxCell id="0"/>
                <mxCell id="1" parent="0"/>
                <mxCell id="2" value="Admin" style="shape=umlLifeline;participant=umlActor;perimeter=lifelinePerimeter;whiteSpace=wrap;html=1;container=1;collapsible=0;recursiveResize=0;verticalAlign=top;spacingTop=36;outlineConnect=0;" parent="1" vertex="1">
                    <mxGeometry x="100" y="80" width="20" height="400" as="geometry"/>
                </mxCell>
                <mxCell id="3" value="System" style="shape=umlLifeline;perimeter=lifelinePerimeter;whiteSpace=wrap;html=1;container=1;collapsible=0;recursiveResize=0;outlineConnect=0;" parent="1" vertex="1">
                    <mxGeometry x="300" y="80" width="100" height="400" as="geometry"/>
                </mxCell>
                <mxCell id="4" value="Club Manager" style="shape=umlLifeline;participant=umlActor;perimeter=lifelinePerimeter;whiteSpace=wrap;html=1;container=1;collapsible=0;recursiveResize=0;verticalAlign=top;spacingTop=36;outlineConnect=0;" parent="1" vertex="1">
                    <mxGeometry x="500" y="80" width="20" height="400" as="geometry"/>
                </mxCell>
                <mxCell id="5" value="1. Create Club" style="html=1;verticalAlign=bottom;endArrow=block;" parent="1" edge="1">
                    <mxGeometry relative="1" as="geometry">
                        <mxPoint x="110" y="120" as="sourcePoint"/>
                        <mxPoint x="350" y="120" as="targetPoint"/>
                    </mxGeometry>
                </mxCell>
                <mxCell id="6" value="2. Assign Manager" style="html=1;verticalAlign=bottom;endArrow=block;" parent="1" edge="1">
                    <mxGeometry relative="1" as="geometry">
                        <mxPoint x="110" y="160" as="sourcePoint"/>
                        <mxPoint x="350" y="160" as="targetPoint"/>
                    </mxGeometry>
                </mxCell>
                <mxCell id="7" value="3. Notify Manager" style="html=1;verticalAlign=bottom;endArrow=block;" parent="1" edge="1">
                    <mxGeometry relative="1" as="geometry">
                        <mxPoint x="350" y="200" as="sourcePoint"/>
                        <mxPoint x="510" y="200" as="targetPoint"/>
                    </mxGeometry>
                </mxCell>
                <mxCell id="8" value="4. Configure Club Settings" style="html=1;verticalAlign=bottom;endArrow=block;" parent="1" edge="1">
                    <mxGeometry relative="1" as="geometry">
                        <mxPoint x="510" y="240" as="sourcePoint"/>
                        <mxPoint x="350" y="240" as="targetPoint"/>
                    </mxGeometry>
                </mxCell>
                <mxCell id="9" value="5. Manage Club Members" style="html=1;verticalAlign=bottom;endArrow=block;" parent="1" edge="1">
                    <mxGeometry relative="1" as="geometry">
                        <mxPoint x="510" y="280" as="sourcePoint"/>
                        <mxPoint x="350" y="280" as="targetPoint"/>
                    </mxGeometry>
                </mxCell>
                <mxCell id="10" value="6. Generate Reports" style="html=1;verticalAlign=bottom;endArrow=block;" parent="1" edge="1">
                    <mxGeometry relative="1" as="geometry">
                        <mxPoint x="510" y="320" as="sourcePoint"/>
                        <mxPoint x="350" y="320" as="targetPoint"/>
                    </mxGeometry>
                </mxCell>
            </root>
        </mxGraphModel>
    </diagram>
</mxfile>